<?xml version="1.0" encoding="UTF-8" standalone="no"?>
<!-- Created with Inkscape (http://www.inkscape.org/) -->

<svg
 xmlns:dc="http://purl.org/dc/elements/1.1/"
 xmlns:cc="http://creativecommons.org/ns#"
 xmlns:rdf="http://www.w3.org/1999/02/22-rdf-syntax-ns#"
 xmlns:svg="http://www.w3.org/2000/svg"
 xmlns="http://www.w3.org/2000/svg"
 xmlns:sodipodi="http://sodipodi.sourceforge.net/DTD/sodipodi-0.dtd"
 xmlns:inkscape="http://www.inkscape.org/namespaces/inkscape"
 width="24"
 height="24"
 viewBox="0 0 24 24"
 id="svg2"
 version="1.1"
 inkscape:version="0.91 r13725"
 sodipodi:docname="tea.svg">
<defs
 id="defs4">
<inkscape:path-effect
 fuse_tolerance="0"
 vertical_pattern="false"
 prop_units="false"
 tang_offset="0"
 normal_offset="0"
 spacing="0"
 scale_y_rel="false"
 prop_scale="1"
 copytype="single_stretched"
 pattern="m 118.5145,-67.766138 c 0,-2.76 2.24,-5 5,-5 2.76,0 5,2.24 5,5 0,2.76 -2.24,5 -5,5 -2.76,0 -5,-2.24 -5,-5 z"
 is_visible="true"
 id="path-effect4179"
 effect="skeletal" />
<inkscape:path-effect
 effect="skeletal"
 id="path-effect4175"
 is_visible="true"
 pattern="m 14.216254,-161.96286 c 0,-2.76 2.24,-5 5,-5 2.76,0 5,2.24 5,5 0,2.76 -2.24,5 -5,5 -2.76,0 -5,-2.24 -5,-5 z"
 copytype="single_stretched"
 prop_scale="1"
 scale_y_rel="false"
 spacing="0"
 normal_offset="0"
 tang_offset="0"
 prop_units="false"
 vertical_pattern="false"
 fuse_tolerance="0" />
<inkscape:path-effect
 effect="skeletal"
 id="path-effect4171"
 is_visible="true"
 pattern="M 0,5 C 0,2.24 2.24,0 5,0 7.76,0 10,2.24 10,5 10,7.76 7.76,10 5,10 2.24,10 0,7.76 0,5 Z"
 copytype="single_stretched"
 prop_scale="1"
 scale_y_rel="false"
 spacing="0"
 normal_offset="0"
 tang_offset="0"
 prop_units="false"
 vertical_pattern="false"
 fuse_tolerance="0" />
<inkscape:path-effect
 effect="skeletal"
 id="path-effect4167"
 is_visible="true"
 pattern="M 0,5 C 0,2.24 2.24,0 5,0 7.76,0 10,2.24 10,5 10,7.76 7.76,10 5,10 2.24,10 0,7.76 0,5 Z"
 copytype="single_stretched"
 prop_scale="1"
 scale_y_rel="false"
 spacing="0"
 normal_offset="0"
 tang_offset="0"
 prop_units="false"
 vertical_pattern="false"
 fuse_tolerance="0" />
<inkscape:path-effect
 effect="skeletal"
 id="path-effect4163"
 is_visible="true"
 pattern="m -64.397225,82.529208 c 0,-2.76 2.24,-5 5,-5 2.76,0 5,2.24 5,5 0,2.76 -2.24,5 -5,5 -2.76,0 -5,-2.24 -5,-5 z"
 copytype="single_stretched"
 prop_scale="1"
 scale_y_rel="false"
 spacing="0"
 normal_offset="0"
 tang_offset="0"
 prop_units="false"
 vertical_pattern="false"
 fuse_tolerance="0" />
<inkscape:path-effect
 effect="skeletal"
 id="path-effect4159"
 is_visible="true"
 pattern="m -59.599,75.963216 c 0,-2.76 2.24,-5 5,-5 2.76,0 5,2.24 5,5 0,2.76 -2.24,5 -5,5 -2.76,0 -5,-2.24 -5,-5 z"
 copytype="single_stretched"
 prop_scale="1"
 scale_y_rel="false"
 spacing="0"
 normal_offset="0"
 tang_offset="0"
 prop_units="false"
 vertical_pattern="false"
 fuse_tolerance="0" />
<inkscape:path-effect
 effect="powerstroke"
 id="path-effect4155"
 is_visible="true"
 offset_points="0,0.5"
 sort_points="true"
 interpolator_type="Linear"
 interpolator_beta="0.2"
 start_linecap_type="zerowidth"
 linejoin_type="round"
 miter_limit="4"
 end_linecap_type="zerowidth"
 cusp_linecap_type="round" />
<inkscape:path-effect
 effect="powerstroke"
 id="path-effect4151"
 is_visible="true"
 offset_points="0,0.5"
 sort_points="true"
 interpolator_type="Linear"
 interpolator_beta="0.2"
 start_linecap_type="zerowidth"
 linejoin_type="round"
 miter_limit="4"
 end_linecap_type="zerowidth"
 cusp_linecap_type="round" />
</defs>
<sodipodi:namedview
 id="base"
 pagecolor="#ffffff"
 bordercolor="#666666"
 borderopacity="1.0"
 inkscape:pageopacity="0.0"
 inkscape:pageshadow="2"
 inkscape:zoom="32.917328"
 inkscape:cx="12.000002"
 inkscape:cy="11.999997"
 inkscape:document-units="px"
 inkscape:current-layer="layer1"
 showgrid="false"
 fit-margin-top="0"
 fit-margin-left="0"
 fit-margin-right="0"
 fit-margin-bottom="0"
 inkscape:window-width="1680"
 inkscape:window-height="987"
 inkscape:window-x="-8"
 inkscape:window-y="-8"
 inkscape:window-maximized="1"
 units="px" />
<metadata
 id="metadata7">
<rdf:RDF>
<cc:Work
 rdf:about="">
<dc:format>image/svg+xml</dc:format>
<dc:type
 rdf:resource="http://purl.org/dc/dcmitype/StillImage" />
<dc:title></dc:title>
</cc:Work>
</rdf:RDF>
</metadata>
<g
 inkscape:label="Layer 1"
 inkscape:groupmode="layer"
 id="layer1"
 transform="translate(-360.57143,-681.93363)">
<g
 id="g4186"
 transform="matrix(0.71447978,0,0,0.68607725,108.9877,217.42463)">
<path
 id="path4184"
 style="fill:#ff0000;fill-rule:evenodd;stroke:none;stroke-width:1px;stroke-linecap:butt;stroke-linejoin:miter;stroke-opacity:1"
 d="m 363.05347,679.34152 c 0.082,-0.0716 0.81339,0.1892 1.36833,1.3048 0,0 0,0 0,0 0.1949,0.39817 0.33472,0.90752 0.31285,1.48641 -0.022,0.45172 -0.13063,0.89764 -0.30505,1.32668 -0.15989,0.39832 -0.34879,0.75638 -0.54266,1.11724 0,0 -8.1e-4,0.002 -8.1e-4,0.002 -0.18852,0.35586 -0.35359,0.6576 -0.47506,0.96394 -0.12281,0.31468 -0.20139,0.60264 -0.20951,0.87246 -0.0215,0.34456 0.0756,0.70395 0.19471,1.00608 0.37949,0.95666 0.92824,1.43891 0.75138,1.63357 -0.0758,0.0835 -0.85931,-0.10968 -1.58974,-1.1706 -0.24781,-0.36162 -0.4648,-0.84911 -0.5124,-1.43697 -0.028,-0.45017 0.0429,-0.90399 0.19579,-1.3363 0.14216,-0.40773 0.32565,-0.77535 0.51918,-1.13406 0,0 8.1e-4,-0.002 8.1e-4,-0.002 0.19994,-0.37566 0.37502,-0.68099 0.52248,-1.00356 0.15288,-0.33907 0.2628,-0.64431 0.30753,-0.9404 0.0623,-0.36628 0.0256,-0.73668 -0.0488,-1.05383 0,0 0,0 0,0 -0.21895,-0.952 -0.68067,-1.46816 -0.4891,-1.63545 z m 7.82868,0 c 0.082,-0.0716 0.81339,0.1892 1.36833,1.3048 0,0 0,0 0,0 0.1949,0.39817 0.33472,0.90752 0.31285,1.48641 -0.022,0.45172 -0.13063,0.89764 -0.30505,1.32668 -0.15989,0.39832 -0.34879,0.75638 -0.54266,1.11724 0,0 -8.1e-4,0.002 -8.1e-4,0.002 -0.18852,0.35586 -0.35359,0.6576 -0.47506,0.96394 -0.12281,0.31468 -0.20139,0.60264 -0.20951,0.87246 -0.0215,0.34456 0.0756,0.70395 0.19471,1.00608 0.37949,0.95666 0.92824,1.43891 0.75138,1.63357 -0.0758,0.0835 -0.85931,-0.10968 -1.58974,-1.1706 -0.24781,-0.36162 -0.4648,-0.84911 -0.5124,-1.43697 -0.028,-0.45017 0.0429,-0.90399 0.19579,-1.3363 0.14216,-0.40773 0.32565,-0.77535 0.51918,-1.13406 0,0 8.1e-4,-0.002 8.1e-4,-0.002 0.19994,-0.37566 0.37502,-0.68099 0.52248,-1.00356 0.15288,-0.33907 0.2628,-0.64431 0.30753,-0.9404 0.0623,-0.36628 0.0256,-0.73668 -0.0488,-1.05383 0,0 0,0 0,0 -0.21895,-0.952 -0.68067,-1.46816 -0.4891,-1.63545 z m -3.99267,-2.27701 c 0.10125,-0.0884 1.00376,0.23349 1.68859,1.6102 0,0 0,0 0,0 0.24052,0.49137 0.41307,1.11994 0.38608,1.83432 -0.0272,0.55744 -0.16121,1.10774 -0.37645,1.6372 -0.19732,0.49155 -0.43043,0.93341 -0.66967,1.37873 0,0 -10e-4,0.002 -10e-4,0.002 -0.23265,0.43915 -0.43635,0.81152 -0.58625,1.18956 -0.15156,0.38833 -0.24853,0.74369 -0.25855,1.07667 -0.0265,0.4252 0.0933,0.86871 0.24028,1.24156 0.46831,1.18057 1.1455,1.77569 0.92725,2.01592 -0.0936,0.10301 -1.06044,-0.13536 -1.96184,-1.44459 -0.3058,-0.44626 -0.57358,-1.04785 -0.63232,-1.7733 -0.0346,-0.55554 0.0529,-1.11558 0.24161,-1.64907 0.17544,-0.50317 0.40187,-0.95683 0.6407,-1.3995 0,0 10e-4,-0.002 10e-4,-0.002 0.24674,-0.46358 0.46279,-0.84038 0.64477,-1.23845 0.18866,-0.41843 0.32431,-0.79511 0.37951,-1.16051 0.0769,-0.45201 0.0316,-0.9091 -0.0602,-1.30048 0,0 0,0 0,0 -0.2702,-1.17482 -0.83999,-1.8118 -0.60358,-2.01824 z m 9.62278,18.79584 -2,0 0,-3 2,0 m 0,-2 -16,0 0,10 c 0,2.20913 1.79085,4 4,4 l 6,0 c 2.20914,0 4,-1.79087 4,-4 l 0,-3 2,0 c 1.10456,0 2,-0.89544 2,-2 l 0,-3 c 0,-1.11 -0.9,-2 -2,-2 z"
 inkscape:connector-curvature="0" />
</g>
</g>
</svg>
