<?xml version="1.0" encoding="UTF-8" standalone="no"?>
<svg
 xmlns:dc="http://purl.org/dc/elements/1.1/"
 xmlns:cc="http://creativecommons.org/ns#"
 xmlns:rdf="http://www.w3.org/1999/02/22-rdf-syntax-ns#"
 xmlns:svg="http://www.w3.org/2000/svg"
 xmlns="http://www.w3.org/2000/svg"
 xmlns:sodipodi="http://sodipodi.sourceforge.net/DTD/sodipodi-0.dtd"
 xmlns:inkscape="http://www.inkscape.org/namespaces/inkscape"
 version="1.1"
 width="24"
 height="24"
 viewBox="0 0 24 24"
 id="svg2"
 inkscape:version="0.91 r13725"
 sodipodi:docname="tea2.svg">
<metadata
 id="metadata10">
<rdf:RDF>
<cc:Work
 rdf:about="">
<dc:format>image/svg+xml</dc:format>
<dc:type
 rdf:resource="http://purl.org/dc/dcmitype/StillImage" />
<dc:title></dc:title>
</cc:Work>
</rdf:RDF>
</metadata>
<defs
 id="defs8">
<inkscape:path-effect
 effect="skeletal"
 id="path-effect4192"
 is_visible="true"
 pattern="m -35.5,34 c 0,-2.76 2.24,-5 5,-5 2.76,0 5,2.24 5,5 0,2.76 -2.24,5 -5,5 -2.76,0 -5,-2.24 -5,-5 z"
 copytype="single_stretched"
 prop_scale="1"
 scale_y_rel="false"
 spacing="0"
 normal_offset="0"
 tang_offset="0"
 prop_units="false"
 vertical_pattern="false"
 fuse_tolerance="0" />
<inkscape:path-effect
 effect="skeletal"
 id="path-effect4188"
 is_visible="true"
 pattern="M 0,5 C 0,2.24 2.24,0 5,0 7.76,0 10,2.24 10,5 10,7.76 7.76,10 5,10 2.24,10 0,7.76 0,5 Z"
 copytype="single_stretched"
 prop_scale="1"
 scale_y_rel="false"
 spacing="0"
 normal_offset="0"
 tang_offset="0"
 prop_units="false"
 vertical_pattern="false"
 fuse_tolerance="0" />
<inkscape:path-effect
 effect="skeletal"
 id="path-effect4180"
 is_visible="true"
 pattern="M 0,5 C 0,2.24 2.24,0 5,0 7.76,0 10,2.24 10,5 10,7.76 7.76,10 5,10 2.24,10 0,7.76 0,5 Z"
 copytype="single_stretched"
 prop_scale="1"
 scale_y_rel="false"
 spacing="0"
 normal_offset="0"
 tang_offset="0"
 prop_units="false"
 vertical_pattern="false"
 fuse_tolerance="0" />
<pattern
 y="0"
 x="0"
 height="6"
 width="6"
 patternUnits="userSpaceOnUse"
 id="EMFhbasepattern" />
<pattern
 y="0"
 x="0"
 height="6"
 width="6"
 patternUnits="userSpaceOnUse"
 id="EMFhbasepattern-6" />
</defs>
<sodipodi:namedview
 pagecolor="#ffffff"
 bordercolor="#666666"
 borderopacity="1"
 objecttolerance="10"
 gridtolerance="10"
 guidetolerance="10"
 inkscape:pageopacity="0"
 inkscape:pageshadow="2"
 inkscape:window-width="1680"
 inkscape:window-height="987"
 id="namedview6"
 showgrid="false"
 showguides="true"
 inkscape:guide-bbox="true"
 inkscape:zoom="22.627417"
 inkscape:cx="11.105235"
 inkscape:cy="10.862904"
 inkscape:window-x="-8"
 inkscape:window-y="-8"
 inkscape:window-maximized="1"
 inkscape:current-layer="svg2" />
<path
 d="m 20,11.811186 -2,0 0,-3.0000003 2,0 m 0,-2 -16,0 0,10.0000003 c 0,2.209139 1.790861,4 4,4 l 6,0 c 2.209139,0 4,-1.790861 4,-4 l 0,-3 2,0 c 1.104569,0 2,-0.895431 2,-2 l 0,-3.0000003 c 0,-1.11 -0.9,-2 -2,-2 z"
 id="path4"
 inkscape:connector-curvature="0"
 sodipodi:nodetypes="ccccscsssscssss" />
<g
 id="g4201"
 transform="matrix(1.3689385,0,0,0.92549993,-4.7383318,0.91122411)"
 style="fill:#000000;fill-opacity:1">
<path
 inkscape:connector-curvature="0"
 id="path4190"
 d="m 9.971335,0.18548845 c 0.026222,-0.0401665 0.49916,-0.0565186 0.981187,0.52623633 0,0 0,0 0,0 0.160375,0.19891133 0.292535,0.48153732 0.302441,0.82615182 7.85e-4,0.2816344 -0.06645,0.5525561 -0.175558,0.8012642 -0.107787,0.2551283 -0.23618,0.4819017 -0.369352,0.7118939 -0.03529,0.061658 -0.07608,0.1323514 -0.110842,0.1931864 -0.09427,0.164987 -0.17838,0.3171126 -0.248758,0.4691509 -0.103369,0.2264954 -0.176541,0.4325174 -0.203154,0.6317984 -0.03714,0.2424406 -0.0052,0.4861606 0.0535,0.6927002 0.172399,0.6200426 0.510874,0.9351162 0.391278,1.054712 C 10.545925,6.1387382 10.042614,6.0023045 9.6454642,5.2733584 9.5054191,5.0116002 9.4042757,4.6731693 9.4166338,4.287507 9.4298277,3.9828067 9.5051363,3.6821501 9.6278814,3.3951836 9.7086714,3.2039625 9.802509,3.0235519 9.9032147,2.846955 9.9423427,2.778338 9.9817887,2.7115489 10.0206,2.6468744 c 0.140944,-0.2375773 0.26092,-0.4247307 0.362062,-0.6262319 0.09313,-0.1936512 0.161202,-0.353282 0.176132,-0.5052972 0.0263,-0.164979 -0.01869,-0.3445635 -0.08442,-0.4897988 0,0 0,0 0,0 C 10.244973,0.51431878 9.8758056,0.33183152 9.971335,0.18548845 Z"
 style="fill:#000000;fill-rule:evenodd;stroke:none;stroke-width:0.1;stroke-linecap:round;stroke-linejoin:miter;stroke-miterlimit:0;stroke-dasharray:none;stroke-dashoffset:0;stroke-opacity:1;fill-opacity:1" />
<path
 style="fill:#000000;fill-rule:evenodd;stroke:none;stroke-width:0.1;stroke-linecap:round;stroke-linejoin:miter;stroke-miterlimit:0;stroke-dasharray:none;stroke-dashoffset:0;stroke-opacity:1;fill-opacity:1"
 d="m 11.793892,0.18548833 c 0.02622,-0.0401665 0.49916,-0.0565186 0.981187,0.52623633 0,0 0,0 0,0 0.160375,0.19891133 0.292535,0.48153734 0.302441,0.82615184 7.85e-4,0.2816344 -0.06645,0.5525561 -0.175558,0.8012642 -0.107787,0.2551283 -0.23618,0.4819017 -0.369352,0.7118939 -0.03529,0.061658 -0.07608,0.1323514 -0.110842,0.1931864 -0.09427,0.164987 -0.17838,0.3171126 -0.248758,0.4691509 -0.103369,0.2264954 -0.176541,0.4325174 -0.203154,0.6317984 -0.03714,0.2424406 -0.0052,0.4861606 0.0535,0.6927002 0.172399,0.6200426 0.510874,0.9351162 0.391278,1.054712 -0.04615,0.046156 -0.549463,-0.090278 -0.946612,-0.8192242 -0.140045,-0.2617582 -0.241189,-0.6001891 -0.228831,-0.9858514 0.01319,-0.3047003 0.0885,-0.6053569 0.211248,-0.8923234 0.08079,-0.1912211 0.174627,-0.3716317 0.275333,-0.5482286 0.03913,-0.068617 0.07857,-0.1354061 0.117385,-0.2000806 0.140944,-0.2375773 0.26092,-0.4247307 0.362062,-0.6262319 0.09313,-0.1936512 0.161202,-0.353282 0.176132,-0.5052972 0.0263,-0.164979 -0.01869,-0.3445635 -0.08442,-0.4897988 0,0 0,0 0,0 C 12.06753,0.51431866 11.698363,0.3318314 11.793892,0.18548833 Z"
 id="path4195"
 inkscape:connector-curvature="0" />
<path
 inkscape:connector-curvature="0"
 id="path4197"
 d="m 13.61645,0.18548833 c 0.02622,-0.0401665 0.49916,-0.0565186 0.981187,0.52623633 0,0 0,0 0,0 0.160375,0.19891133 0.292535,0.48153734 0.302441,0.82615184 7.85e-4,0.2816344 -0.06645,0.5525561 -0.175558,0.8012642 -0.107787,0.2551283 -0.23618,0.4819017 -0.369352,0.7118939 -0.03529,0.061658 -0.07608,0.1323514 -0.110842,0.1931864 -0.09427,0.164987 -0.17838,0.3171126 -0.248758,0.4691509 -0.103369,0.2264954 -0.176541,0.4325174 -0.203154,0.6317984 -0.03714,0.2424406 -0.0052,0.4861606 0.0535,0.6927002 0.172399,0.6200426 0.510874,0.9351162 0.391278,1.054712 -0.04615,0.046156 -0.549463,-0.090278 -0.946612,-0.8192242 -0.140045,-0.2617582 -0.241189,-0.6001891 -0.228831,-0.9858514 0.01319,-0.3047003 0.0885,-0.6053569 0.211248,-0.8923234 0.08079,-0.1912211 0.174627,-0.3716317 0.275333,-0.5482286 0.03913,-0.068617 0.07857,-0.1354061 0.117385,-0.2000806 0.140944,-0.2375773 0.26092,-0.4247307 0.362062,-0.6262319 0.09313,-0.1936512 0.161202,-0.353282 0.176132,-0.5052972 0.0263,-0.164979 -0.01869,-0.3445635 -0.08442,-0.4897988 0,0 0,0 0,0 C 13.890088,0.51431866 13.520921,0.3318314 13.61645,0.18548833 Z"
 style="fill:#000000;fill-rule:evenodd;stroke:none;stroke-width:0.1;stroke-linecap:round;stroke-linejoin:miter;stroke-miterlimit:0;stroke-dasharray:none;stroke-dashoffset:0;stroke-opacity:1;fill-opacity:1" />
<path
 style="fill:#000000;fill-rule:evenodd;stroke:none;stroke-width:0.1;stroke-linecap:round;stroke-linejoin:miter;stroke-miterlimit:0;stroke-dasharray:none;stroke-dashoffset:0;stroke-opacity:1;fill-opacity:1"
 d="m 8.1487782,0.18548845 c 0.026222,-0.0401665 0.4991598,-0.0565186 0.9811868,0.52623633 0,0 0,0 0,0 C 9.29034,0.91063611 9.4225,1.1932621 9.432406,1.5378766 9.433191,1.819511 9.365956,2.0904327 9.256848,2.3391408 9.149061,2.5942691 9.020668,2.8210425 8.887496,3.0510347 8.852206,3.1126927 8.811416,3.1833861 8.776654,3.2442211 8.682384,3.4092081 8.598274,3.5613337 8.527896,3.713372 8.424527,3.9398674 8.351355,4.1458894 8.324742,4.3451704 8.287602,4.587611 8.319542,4.831331 8.378242,5.0378706 8.550641,5.6579132 8.889116,5.9729868 8.76952,6.0925826 8.723368,6.1387382 8.220057,6.0023045 7.8229074,5.2733584 7.6828623,5.0116002 7.5817189,4.6731693 7.594077,4.287507 7.6072709,3.9828067 7.6825795,3.6821501 7.8053246,3.3951836 7.8861146,3.2039625 7.9799522,3.0235519 8.0806579,2.846955 8.1197859,2.778338 8.1592319,2.7115489 8.198043,2.6468744 8.338987,2.4092971 8.458963,2.2221437 8.560105,2.0206425 8.653235,1.8269913 8.721307,1.6673605 8.736237,1.5153453 c 0.0263,-0.164979 -0.01869,-0.3445635 -0.08442,-0.4897988 0,0 0,0 0,0 C 8.422416,0.51431878 8.0532488,0.33183152 8.1487782,0.18548845 Z"
 id="path4199"
 inkscape:connector-curvature="0" />
</g>
</svg>
